<?xml version="1.0" standalone="no"?>
<!DOCTYPE svg PUBLIC "-//W3C//DTD SVG 20010904//EN"
 "http://www.w3.org/TR/2001/REC-SVG-20010904/DTD/svg10.dtd">
<svg version="1.0" xmlns="http://www.w3.org/2000/svg"
 width="2709.000000pt" height="1469.000000pt" viewBox="0 0 2709.000000 1469.000000"
 preserveAspectRatio="xMidYMid meet">
<g transform="translate(0.000000,1469.000000) scale(0.100000,-0.100000)"
fill="#000000" stroke="none">
<path d="M21635 14684 c-558 -32 -919 -76 -1368 -165 -1453 -287 -2814 -939
-3952 -1893 -418 -351 -879 -821 -1221 -1246 -592 -737 -1062 -1564 -1392
-2450 -71 -190 -167 -479 -203 -610 -7 -25 -13 -46 -14 -48 -1 -1 -47 13 -101
33 -630 228 -1375 354 -2094 355 -1272 1 -2483 -366 -3538 -1072 -132 -89
-446 -320 -456 -337 -4 -5 -22 -5 -43 0 -135 31 -524 81 -768 99 -182 13 -676
13 -863 0 -2229 -157 -4211 -1472 -5216 -3460 -83 -163 -162 -339 -237 -528
-60 -149 -171 -473 -165 -480 3 -2 30 36 62 85 137 212 344 487 538 713 116
135 511 530 646 646 581 499 1195 870 1884 1139 573 223 1136 356 1796 422
218 22 880 25 1090 5 555 -52 1049 -154 1532 -316 l167 -57 168 168 c808 810
1809 1285 2950 1399 229 23 668 23 898 0 1076 -107 2035 -544 2835 -1291 l135
-126 6 298 c25 1142 288 2194 798 3188 1117 2178 3251 3655 5670 3924 245 28
424 39 724 47 l257 7 0 779 0 778 -237 -2 c-131 -1 -260 -3 -288 -4z"/>
<path d="M21715 12199 c-1139 -50 -2257 -411 -3210 -1036 -1525 -1002 -2551
-2613 -2809 -4413 -41 -282 -57 -486 -63 -792 l-6 -288 780 0 780 0 6 229 c17
563 96 1016 263 1502 452 1317 1481 2393 2774 2902 568 224 1154 337 1741 337
l189 0 0 785 0 785 -132 -2 c-73 0 -214 -5 -313 -9z"/>
<path d="M23060 9228 c0 -1943 -4 -2974 -10 -3033 -49 -427 -228 -857 -495
-1190 -76 -96 -253 -273 -350 -352 -244 -197 -548 -353 -845 -432 -203 -54
-336 -73 -562 -78 l-208 -6 0 -778 0 -779 103 0 c1315 1 2485 599 3225 1647
402 570 637 1238 692 1963 14 188 14 4467 0 4598 -78 717 -629 1276 -1353
1372 -43 5 -105 10 -138 10 l-59 0 0 -2942z"/>
<path d="M21695 9689 c-1249 -97 -2375 -790 -3017 -1859 -325 -539 -505 -1119
-548 -1765 -13 -200 -13 -4426 0 -4553 40 -375 184 -677 449 -943 219 -219
453 -350 746 -417 89 -21 252 -42 320 -42 l35 0 0 2935 c0 1990 3 2967 11
3033 96 892 707 1655 1555 1942 247 84 469 120 735 120 l169 0 0 780 0 780
-172 -1 c-95 -1 -222 -6 -283 -10z"/>
<path d="M25530 6398 c0 -892 -272 -1794 -768 -2553 -669 -1025 -1696 -1753
-2875 -2040 -362 -88 -643 -124 -1024 -132 l-273 -6 0 -780 0 -780 253 6 c606
16 1112 89 1632 237 1060 302 1971 836 2746 1610 297 297 477 507 693 810 587
823 967 1773 1110 2772 39 266 56 487 63 791 l6 277 -781 0 -782 0 0 -212z"/>
<path d="M15618 3648 l-3 -1703 -22 -53 c-64 -157 -248 -297 -443 -338 -62
-13 -89 -13 -159 -4 -299 40 -470 234 -471 533 0 329 155 519 463 567 85 13
289 14 340 1 l37 -9 0 729 c0 401 -4 729 -8 729 -4 0 -71 11 -147 24 -199 35
-252 38 -412 26 -476 -34 -869 -207 -1209 -533 -335 -319 -534 -692 -614
-1147 -31 -176 -38 -493 -16 -686 48 -417 205 -775 468 -1074 325 -368 772
-604 1298 -685 144 -22 495 -31 645 -16 419 42 788 190 1095 438 104 84 293
280 372 386 134 181 240 395 299 607 68 246 62 86 66 2093 l4 1817 -791 0
-790 0 -2 -1702z"/>
<path d="M11767 4919 c-318 -33 -594 -275 -678 -595 -28 -111 -28 -289 1 -398
73 -274 274 -481 550 -568 65 -20 96 -23 225 -23 129 0 160 3 225 23 261 82
458 277 540 537 34 107 39 303 11 415 -100 401 -460 652 -874 609z"/>
<path d="M9784 4245 c-282 -61 -514 -283 -596 -572 -32 -112 -32 -305 0 -417
65 -227 226 -419 433 -516 205 -95 473 -95 678 0 511 239 619 924 207 1307
-114 105 -232 168 -374 198 -83 18 -267 18 -348 0z"/>
<path d="M2404 4059 c-263 -15 -545 -68 -749 -139 -417 -147 -722 -431 -839
-780 -60 -181 -59 -168 -65 -897 -6 -657 -6 -672 -27 -700 -34 -47 -97 -72
-217 -85 l-107 -11 0 -705 0 -705 288 6 c308 6 460 20 652 63 576 129 859 410
957 949 14 75 17 199 22 761 l6 671 27 36 c53 69 207 117 287 89 l31 -11 0
735 0 734 -62 -1 c-35 -1 -127 -6 -204 -10z"/>
<path d="M2950 2865 c0 -1234 2 -1304 40 -1490 105 -513 436 -933 915 -1161
396 -189 933 -234 1412 -119 175 42 405 132 524 205 l48 29 87 -51 c568 -334
1434 -332 2009 7 418 246 700 641 794 1110 38 191 41 296 41 1503 l0 1172
-785 0 -785 0 -2 -1222 -3 -1223 -24 -52 c-45 -101 -143 -163 -267 -171 -62
-4 -79 -1 -132 23 -72 32 -143 102 -175 173 l-22 47 -3 1213 -2 1212 -730 0
-730 0 0 -1169 c0 -748 -4 -1187 -10 -1222 -14 -73 -44 -131 -95 -183 -64 -66
-115 -89 -211 -94 -72 -4 -89 -1 -138 21 -72 33 -139 102 -168 175 l-23 57 -3
1208 -2 1207 -780 0 -780 0 0 -1205z"/>
<path d="M11080 1885 l0 -1775 785 0 785 0 0 1775 c0 976 -2 1775 -3 1775 -2
0 -21 -24 -41 -54 -54 -79 -191 -206 -274 -255 -360 -215 -814 -159 -1108 135
-34 34 -79 87 -100 118 -20 31 -38 56 -40 56 -2 0 -4 -799 -4 -1775z"/>
<path d="M9170 1555 l0 -1445 790 0 790 0 0 1445 c0 795 -2 1445 -4 1445 -2 0
-24 -28 -49 -62 -95 -133 -257 -260 -405 -317 -387 -149 -815 -24 -1064 312
-28 37 -52 67 -54 67 -2 0 -4 -650 -4 -1445z"/>
</g>
</svg>
